<svg width="1831" height="31" viewBox="0 0 1831 31" fill="none" xmlns="http://www.w3.org/2000/svg">
<g clip-path="url(#clip0_183_6)">
<rect width="1831" height="31" fill="#E7EFFF"/>
<rect x="18.1165" y="-10.8801" width="11" height="51.6267" transform="rotate(35.6866 18.1165 -10.8801)" fill="#FF0000"/>
<rect x="45.1675" y="-10.8801" width="11" height="51.6267" transform="rotate(35.6866 45.1675 -10.8801)" fill="#FF0000"/>
<rect x="72.2184" y="-10.8801" width="11" height="51.6267" transform="rotate(35.6866 72.2184 -10.8801)" fill="#FF0000"/>
<rect x="99.2693" y="-10.8801" width="11" height="51.6267" transform="rotate(35.6866 99.2693 -10.8801)" fill="#FF0000"/>
<rect x="126.32" y="-10.8801" width="11" height="51.6267" transform="rotate(35.6866 126.32 -10.8801)" fill="#FF0000"/>
<rect x="153.371" y="-10.8801" width="11" height="51.6267" transform="rotate(35.6866 153.371 -10.8801)" fill="#FF0000"/>
<rect x="180.422" y="-10.8801" width="11" height="51.6267" transform="rotate(35.6866 180.422 -10.8801)" fill="#FF0000"/>
<rect x="207.473" y="-10.8801" width="11" height="51.6267" transform="rotate(35.6866 207.473 -10.8801)" fill="#FF0000"/>
<rect x="234.524" y="-10.8801" width="11" height="51.6267" transform="rotate(35.6866 234.524 -10.8801)" fill="#FF0000"/>
<rect x="261.575" y="-10.8801" width="11" height="51.6267" transform="rotate(35.6866 261.575 -10.8801)" fill="#FF0000"/>
<rect x="288.626" y="-10.8801" width="11" height="51.6267" transform="rotate(35.6866 288.626 -10.8801)" fill="#FF0000"/>
<rect x="315.677" y="-10.8801" width="11" height="51.6267" transform="rotate(35.6866 315.677 -10.8801)" fill="#FF0000"/>
<rect x="342.728" y="-10.8801" width="11" height="51.6267" transform="rotate(35.6866 342.728 -10.8801)" fill="#FF0000"/>
<rect x="369.779" y="-10.8801" width="11" height="51.6267" transform="rotate(35.6866 369.779 -10.8801)" fill="#FF0000"/>
<rect x="396.83" y="-10.8801" width="11" height="51.6267" transform="rotate(35.6866 396.83 -10.8801)" fill="#FF0000"/>
<rect x="423.881" y="-10.8801" width="11" height="51.6267" transform="rotate(35.6866 423.881 -10.8801)" fill="#FF0000"/>
<rect x="450.932" y="-10.8801" width="11" height="51.6267" transform="rotate(35.6866 450.932 -10.8801)" fill="#FF0000"/>
<rect x="477.982" y="-10.8801" width="11" height="51.6267" transform="rotate(35.6866 477.982 -10.8801)" fill="#FF0000"/>
<rect x="505.033" y="-10.8801" width="11" height="51.6267" transform="rotate(35.6866 505.033 -10.8801)" fill="#FF0000"/>
<rect x="532.084" y="-10.8801" width="11" height="51.6267" transform="rotate(35.6866 532.084 -10.8801)" fill="#FF0000"/>
<rect x="559.135" y="-10.8801" width="11" height="51.6267" transform="rotate(35.6866 559.135 -10.8801)" fill="#FF0000"/>
<rect x="586.186" y="-10.8801" width="11" height="51.6267" transform="rotate(35.6866 586.186 -10.8801)" fill="#FF0000"/>
<rect x="613.237" y="-10.8801" width="11" height="51.6267" transform="rotate(35.6866 613.237 -10.8801)" fill="#FF0000"/>
<rect x="640.288" y="-10.8801" width="11" height="51.6267" transform="rotate(35.6866 640.288 -10.8801)" fill="#FF0000"/>
<rect x="667.339" y="-10.8801" width="11" height="51.6267" transform="rotate(35.6866 667.339 -10.8801)" fill="#FF0000"/>
<rect x="694.39" y="-10.8801" width="11" height="51.6267" transform="rotate(35.6866 694.39 -10.8801)" fill="#FF0000"/>
<rect x="721.441" y="-10.8801" width="11" height="51.6267" transform="rotate(35.6866 721.441 -10.8801)" fill="#FF0000"/>
<rect x="748.492" y="-10.8801" width="11" height="51.6267" transform="rotate(35.6866 748.492 -10.8801)" fill="#FF0000"/>
<rect x="775.543" y="-10.8801" width="11" height="51.6267" transform="rotate(35.6866 775.543 -10.8801)" fill="#FF0000"/>
<rect x="802.594" y="-10.8801" width="11" height="51.6267" transform="rotate(35.6866 802.594 -10.8801)" fill="#FF0000"/>
<rect x="829.645" y="-10.8801" width="11" height="51.6267" transform="rotate(35.6866 829.645 -10.8801)" fill="#FF0000"/>
<rect x="856.696" y="-10.8801" width="11" height="51.6267" transform="rotate(35.6866 856.696 -10.8801)" fill="#FF0000"/>
<rect x="883.747" y="-10.8801" width="11" height="51.6267" transform="rotate(35.6866 883.747 -10.8801)" fill="#FF0000"/>
<rect x="910.798" y="-10.8801" width="11" height="51.6267" transform="rotate(35.6866 910.798 -10.8801)" fill="#FF0000"/>
<rect x="937.849" y="-10.8801" width="11" height="51.6267" transform="rotate(35.6866 937.849 -10.8801)" fill="#FF0000"/>
<rect x="964.9" y="-10.8801" width="11" height="51.6267" transform="rotate(35.6866 964.9 -10.8801)" fill="#FF0000"/>
<rect x="991.951" y="-10.8801" width="11" height="51.6267" transform="rotate(35.6866 991.951 -10.8801)" fill="#FF0000"/>
<rect x="1019" y="-10.8801" width="11" height="51.6267" transform="rotate(35.6866 1019 -10.8801)" fill="#FF0000"/>
<rect x="1046.05" y="-10.8801" width="11" height="51.6267" transform="rotate(35.6866 1046.05 -10.8801)" fill="#FF0000"/>
<rect x="1073.1" y="-10.8801" width="11" height="51.6267" transform="rotate(35.6866 1073.1 -10.8801)" fill="#FF0000"/>
<rect x="1100.15" y="-10.8801" width="11" height="51.6267" transform="rotate(35.6866 1100.15 -10.8801)" fill="#FF0000"/>
<rect x="1127.21" y="-10.8801" width="11" height="51.6267" transform="rotate(35.6866 1127.21 -10.8801)" fill="#FF0000"/>
<rect x="1154.26" y="-10.8801" width="11" height="51.6267" transform="rotate(35.6866 1154.26 -10.8801)" fill="#FF0000"/>
<rect x="1181.31" y="-10.8801" width="11" height="51.6267" transform="rotate(35.6866 1181.31 -10.8801)" fill="#FF0000"/>
<rect x="1208.36" y="-10.8801" width="11" height="51.6267" transform="rotate(35.6866 1208.36 -10.8801)" fill="#FF0000"/>
<rect x="1235.41" y="-10.8801" width="11" height="51.6267" transform="rotate(35.6866 1235.41 -10.8801)" fill="#FF0000"/>
<rect x="1262.46" y="-10.8801" width="11" height="51.6267" transform="rotate(35.6866 1262.46 -10.8801)" fill="#FF0000"/>
<rect x="1289.51" y="-10.8801" width="11" height="51.6267" transform="rotate(35.6866 1289.51 -10.8801)" fill="#FF0000"/>
<rect x="1316.56" y="-10.8801" width="11" height="51.6267" transform="rotate(35.6866 1316.56 -10.8801)" fill="#FF0000"/>
<rect x="1343.61" y="-10.8801" width="11" height="51.6267" transform="rotate(35.6866 1343.61 -10.8801)" fill="#FF0000"/>
<rect x="1370.66" y="-10.8801" width="11" height="51.6267" transform="rotate(35.6866 1370.66 -10.8801)" fill="#FF0000"/>
<rect x="1397.71" y="-10.8801" width="11" height="51.6267" transform="rotate(35.6866 1397.71 -10.8801)" fill="#FF0000"/>
<rect x="1424.77" y="-10.8801" width="11" height="51.6267" transform="rotate(35.6866 1424.77 -10.8801)" fill="#FF0000"/>
<rect x="1451.82" y="-10.8801" width="11" height="51.6267" transform="rotate(35.6866 1451.82 -10.8801)" fill="#FF0000"/>
<rect x="1478.87" y="-10.8801" width="11" height="51.6267" transform="rotate(35.6866 1478.87 -10.8801)" fill="#FF0000"/>
<rect x="1505.92" y="-10.8801" width="11" height="51.6267" transform="rotate(35.6866 1505.92 -10.8801)" fill="#FF0000"/>
<rect x="1532.97" y="-10.8801" width="11" height="51.6267" transform="rotate(35.6866 1532.97 -10.8801)" fill="#FF0000"/>
<rect x="1560.02" y="-10.8801" width="11" height="51.6267" transform="rotate(35.6866 1560.02 -10.8801)" fill="#FF0000"/>
<rect x="1587.07" y="-10.8801" width="11" height="51.6267" transform="rotate(35.6866 1587.07 -10.8801)" fill="#FF0000"/>
<rect x="1614.12" y="-10.8801" width="11" height="51.6267" transform="rotate(35.6866 1614.12 -10.8801)" fill="#FF0000"/>
<rect x="1641.17" y="-10.8801" width="11" height="51.6267" transform="rotate(35.6866 1641.17 -10.8801)" fill="#FF0000"/>
<rect x="1668.22" y="-10.8801" width="11" height="51.6267" transform="rotate(35.6866 1668.22 -10.8801)" fill="#FF0000"/>
<rect x="1695.27" y="-10.8801" width="11" height="51.6267" transform="rotate(35.6866 1695.27 -10.8801)" fill="#FF0000"/>
<rect x="1722.33" y="-10.8801" width="11" height="51.6267" transform="rotate(35.6866 1722.33 -10.8801)" fill="#FF0000"/>
<rect x="1749.38" y="-10.8801" width="11" height="51.6267" transform="rotate(35.6866 1749.38 -10.8801)" fill="#FF0000"/>
<rect x="1776.43" y="-10.8801" width="11" height="51.6267" transform="rotate(35.6866 1776.43 -10.8801)" fill="#FF0000"/>
<rect x="1803.48" y="-10.8801" width="11" height="51.6267" transform="rotate(35.6866 1803.48 -10.8801)" fill="#FF0000"/>
<rect x="1830.53" y="-10.8801" width="11" height="51.6267" transform="rotate(35.6866 1830.53 -10.8801)" fill="#FF0000"/>
</g>
<defs>
<clipPath id="clip0_183_6">
<rect width="1831" height="31" fill="white"/>
</clipPath>
</defs>
</svg>
